0 Name: main.ldr
1 7 0.0 24.0 10.0 0.0 0.0 -1.0 0.0 1.0 0.0 1.0 0.0 0.0 3004.dat
1 7 20.0 24.0 10.0 0.0 0.0 -1.0 0.0 1.0 0.0 1.0 0.0 0.0 3004.dat
1 7 40.0 24.0 10.0 0.0 0.0 -1.0 0.0 1.0 0.0 1.0 0.0 0.0 3004.dat
1 7 10.0 24.0 40.0 1.0 0.0 0.0 0.0 1.0 0.0 0.0 0.0 1.0 3004.dat
1 7 40.0 24.0 40.0 0.0 0.0 -1.0 0.0 1.0 0.0 1.0 0.0 0.0 3005.dat
1 7 10.0 24.0 60.00000000000001 1.0 0.0 0.0 0.0 1.0 0.0 0.0 0.0 1.0 3004.dat
1 7 40.0 24.0 70.0 0.0 0.0 1.0 0.0 1.0 0.0 -1.0 0.0 0.0 3004.dat
1 7 10.0 24.0 80.0 1.0 0.0 0.0 0.0 1.0 0.0 0.0 0.0 1.0 3004.dat
1 7 10.0 0.0 20.0 1.0 0.0 0.0 0.0 1.0 0.0 0.0 0.0 1.0 3004.dat
1 7 40.0 0.0 10.0 0.0 0.0 -1.0 0.0 1.0 0.0 1.0 0.0 0.0 3004.dat
1 7 10.0 0.0 40.0 1.0 0.0 0.0 0.0 1.0 0.0 0.0 0.0 1.0 3004.dat
1 7 40.0 0.0 40.0 0.0 0.0 -1.0 0.0 1.0 0.0 1.0 0.0 0.0 3005.dat
1 7 10.0 0.0 60.00000000000001 1.0 0.0 0.0 0.0 1.0 0.0 0.0 0.0 1.0 3004.dat
1 7 40.0 0.0 70.0 0.0 0.0 1.0 0.0 1.0 0.0 -1.0 0.0 0.0 3004.dat
1 7 10.0 0.0 80.0 1.0 0.0 0.0 0.0 1.0 0.0 0.0 0.0 1.0 3004.dat
