0 Name: main.ldr
1 7 80.0 72.0 20.0 0.0 0.0 -1.0 0.0 1.0 0.0 1.0 0.0 0.0 3005.dat
1 7 110.0 72.0 20.0 1.0 0.0 0.0 0.0 1.0 0.0 0.0 0.0 1.0 3004.dat
1 7 50.0 72.0 40.0 1.0 0.0 0.0 0.0 1.0 0.0 0.0 0.0 1.0 3004.dat
1 7 90.0 72.0 40.0 1.0 0.0 0.0 0.0 1.0 0.0 0.0 0.0 1.0 3004.dat
1 7 130.0 72.0 40.0 1.0 0.0 0.0 0.0 1.0 0.0 0.0 0.0 1.0 3004.dat
1 7 160.0 72.0 30.0 0.0 0.0 -1.0 0.0 1.0 0.0 1.0 0.0 0.0 3004.dat
1 7 30.0 72.0 60.00000000000001 1.0 0.0 0.0 0.0 1.0 0.0 0.0 0.0 1.0 3004.dat
1 7 70.0 72.0 60.00000000000001 1.0 0.0 0.0 0.0 1.0 0.0 0.0 0.0 1.0 3004.dat
1 7 110.0 72.0 60.00000000000001 1.0 0.0 0.0 0.0 1.0 0.0 0.0 0.0 1.0 3004.dat
1 7 140.0 72.0 60.00000000000001 0.0 0.0 -1.0 0.0 1.0 0.0 1.0 0.0 0.0 3005.dat
1 7 170.0 72.0 60.00000000000001 1.0 0.0 0.0 0.0 1.0 0.0 0.0 0.0 1.0 3004.dat
1 7 20.0 72.0 80.0 0.0 0.0 -1.0 0.0 1.0 0.0 1.0 0.0 0.0 3005.dat
1 7 50.0 72.0 80.0 1.0 0.0 0.0 0.0 1.0 0.0 0.0 0.0 1.0 3004.dat
1 7 140.0 72.0 80.0 0.0 0.0 -1.0 0.0 1.0 0.0 1.0 0.0 0.0 3005.dat
1 7 170.0 72.0 80.0 1.0 0.0 0.0 0.0 1.0 0.0 0.0 0.0 1.0 3004.dat
1 7 0.0 72.0 110.0 0.0 0.0 1.0 0.0 1.0 0.0 -1.0 0.0 0.0 3004.dat
1 7 30.0 72.0 100.0 1.0 0.0 0.0 0.0 1.0 0.0 0.0 0.0 1.0 3004.dat
1 7 160.0 72.0 110.0 0.0 0.0 1.0 0.0 1.0 0.0 -1.0 0.0 0.0 3004.dat
1 7 190.0 72.0 100.0 1.0 0.0 0.0 0.0 1.0 0.0 0.0 0.0 1.0 3004.dat
1 7 30.0 72.0 120.00000000000001 1.0 0.0 0.0 0.0 1.0 0.0 0.0 0.0 1.0 3004.dat
1 7 190.0 72.0 120.00000000000001 1.0 0.0 0.0 0.0 1.0 0.0 0.0 0.0 1.0 3004.dat
1 7 0.0 72.0 140.0 0.0 0.0 -1.0 0.0 1.0 0.0 1.0 0.0 0.0 3005.dat
1 7 30.0 72.0 140.0 1.0 0.0 0.0 0.0 1.0 0.0 0.0 0.0 1.0 3004.dat
1 7 160.0 72.0 140.0 0.0 0.0 -1.0 0.0 1.0 0.0 1.0 0.0 0.0 3005.dat
1 7 190.0 72.0 140.0 1.0 0.0 0.0 0.0 1.0 0.0 0.0 0.0 1.0 3004.dat
1 7 20.0 72.0 170.0 0.0 0.0 1.0 0.0 1.0 0.0 -1.0 0.0 0.0 3004.dat
1 7 50.0 72.0 160.0 1.0 0.0 0.0 0.0 1.0 0.0 0.0 0.0 1.0 3004.dat
1 7 150.0 72.0 160.0 1.0 0.0 0.0 0.0 1.0 0.0 0.0 0.0 1.0 3004.dat
1 7 190.0 72.0 160.0 1.0 0.0 0.0 0.0 1.0 0.0 0.0 0.0 1.0 3004.dat
1 7 50.0 72.0 180.0 1.0 0.0 0.0 0.0 1.0 0.0 0.0 0.0 1.0 3004.dat
1 7 90.0 72.0 180.0 1.0 0.0 0.0 0.0 1.0 0.0 0.0 0.0 1.0 3004.dat
1 7 130.0 72.0 180.0 1.0 0.0 0.0 0.0 1.0 0.0 0.0 0.0 1.0 3004.dat
1 7 170.0 72.0 180.0 1.0 0.0 0.0 0.0 1.0 0.0 0.0 0.0 1.0 3004.dat
1 7 40.0 72.0 200.0 0.0 0.0 -1.0 0.0 1.0 0.0 1.0 0.0 0.0 3005.dat
1 7 70.0 72.0 200.0 1.0 0.0 0.0 0.0 1.0 0.0 0.0 0.0 1.0 3004.dat
1 7 110.0 72.0 200.0 1.0 0.0 0.0 0.0 1.0 0.0 0.0 0.0 1.0 3004.dat
1 7 150.0 72.0 200.0 1.0 0.0 0.0 0.0 1.0 0.0 0.0 0.0 1.0 3004.dat
1 7 80.0 72.0 220.0 0.0 0.0 -1.0 0.0 1.0 0.0 1.0 0.0 0.0 3005.dat
1 7 110.0 72.0 220.0 1.0 0.0 0.0 0.0 1.0 0.0 0.0 0.0 1.0 3004.dat
1 7 80.0 48.0 30.0 0.0 0.0 1.0 0.0 1.0 0.0 -1.0 0.0 0.0 3004.dat
1 7 100.0 48.0 30.0 0.0 0.0 1.0 0.0 1.0 0.0 -1.0 0.0 0.0 3004.dat
1 7 130.0 48.0 20.0 1.0 0.0 0.0 0.0 1.0 0.0 0.0 0.0 1.0 3004.dat
1 7 40.0 48.0 50.0 0.0 0.0 1.0 0.0 1.0 0.0 -1.0 0.0 0.0 3004.dat
1 7 60.00000000000001 48.0 30.0 0.0 0.0 -1.0 0.0 1.0 0.0 1.0 0.0 0.0 3004.dat
1 7 120.00000000000001 48.0 50.0 0.0 0.0 1.0 0.0 1.0 0.0 -1.0 0.0 0.0 3004.dat
1 7 140.0 48.0 50.0 0.0 0.0 1.0 0.0 1.0 0.0 -1.0 0.0 0.0 3004.dat
1 7 160.0 48.0 50.0 0.0 0.0 1.0 0.0 1.0 0.0 -1.0 0.0 0.0 3004.dat
1 7 20.0 48.0 70.0 0.0 0.0 1.0 0.0 1.0 0.0 -1.0 0.0 0.0 3004.dat
1 7 60.00000000000001 48.0 70.0 0.0 0.0 1.0 0.0 1.0 0.0 -1.0 0.0 0.0 3004.dat
1 7 90.0 48.0 60.00000000000001 1.0 0.0 0.0 0.0 1.0 0.0 0.0 0.0 1.0 3004.dat
1 7 180.0 48.0 60.00000000000001 0.0 0.0 -1.0 0.0 1.0 0.0 1.0 0.0 0.0 3005.dat
1 7 40.0 48.0 90.0 0.0 0.0 1.0 0.0 1.0 0.0 -1.0 0.0 0.0 3004.dat
1 7 140.0 48.0 80.0 0.0 0.0 -1.0 0.0 1.0 0.0 1.0 0.0 0.0 3005.dat
1 7 160.0 48.0 90.0 0.0 0.0 1.0 0.0 1.0 0.0 -1.0 0.0 0.0 3004.dat
1 7 190.0 48.0 80.0 1.0 0.0 0.0 0.0 1.0 0.0 0.0 0.0 1.0 3004.dat
1 7 0.0 48.0 90.0 0.0 0.0 -1.0 0.0 1.0 0.0 1.0 0.0 0.0 3004.dat
1 7 20.0 48.0 110.0 0.0 0.0 1.0 0.0 1.0 0.0 -1.0 0.0 0.0 3004.dat
1 7 180.0 48.0 110.0 0.0 0.0 1.0 0.0 1.0 0.0 -1.0 0.0 0.0 3004.dat
1 7 200.0 48.0 110.0 0.0 0.0 1.0 0.0 1.0 0.0 -1.0 0.0 0.0 3004.dat
1 7 0.0 48.0 120.00000000000001 0.0 0.0 -1.0 0.0 1.0 0.0 1.0 0.0 0.0 3005.dat
1 7 40.0 48.0 130.0 0.0 0.0 1.0 0.0 1.0 0.0 -1.0 0.0 0.0 3004.dat
1 7 160.0 48.0 130.0 0.0 0.0 1.0 0.0 1.0 0.0 -1.0 0.0 0.0 3004.dat
1 7 0.0 48.0 150.0 0.0 0.0 1.0 0.0 1.0 0.0 -1.0 0.0 0.0 3004.dat
1 7 20.0 48.0 150.0 0.0 0.0 1.0 0.0 1.0 0.0 -1.0 0.0 0.0 3004.dat
1 7 180.0 48.0 150.0 0.0 0.0 1.0 0.0 1.0 0.0 -1.0 0.0 0.0 3004.dat
1 7 200.0 48.0 150.0 0.0 0.0 1.0 0.0 1.0 0.0 -1.0 0.0 0.0 3004.dat
1 7 40.0 48.0 170.0 0.0 0.0 1.0 0.0 1.0 0.0 -1.0 0.0 0.0 3004.dat
1 7 60.00000000000001 48.0 170.0 0.0 0.0 1.0 0.0 1.0 0.0 -1.0 0.0 0.0 3004.dat
1 7 140.0 48.0 150.0 0.0 0.0 -1.0 0.0 1.0 0.0 1.0 0.0 0.0 3004.dat
1 7 160.0 48.0 170.0 0.0 0.0 1.0 0.0 1.0 0.0 -1.0 0.0 0.0 3004.dat
1 7 20.0 48.0 180.0 0.0 0.0 -1.0 0.0 1.0 0.0 1.0 0.0 0.0 3005.dat
1 7 80.0 48.0 190.0 0.0 0.0 1.0 0.0 1.0 0.0 -1.0 0.0 0.0 3004.dat
1 7 100.0 48.0 190.0 0.0 0.0 1.0 0.0 1.0 0.0 -1.0 0.0 0.0 3004.dat
1 7 120.00000000000001 48.0 190.0 0.0 0.0 1.0 0.0 1.0 0.0 -1.0 0.0 0.0 3004.dat
1 7 140.0 48.0 180.0 0.0 0.0 -1.0 0.0 1.0 0.0 1.0 0.0 0.0 3005.dat
1 7 180.0 48.0 190.0 0.0 0.0 1.0 0.0 1.0 0.0 -1.0 0.0 0.0 3004.dat
1 7 40.0 48.0 200.0 0.0 0.0 -1.0 0.0 1.0 0.0 1.0 0.0 0.0 3005.dat
1 7 60.00000000000001 48.0 210.0 0.0 0.0 1.0 0.0 1.0 0.0 -1.0 0.0 0.0 3004.dat
1 7 140.0 48.0 210.0 0.0 0.0 1.0 0.0 1.0 0.0 -1.0 0.0 0.0 3004.dat
1 7 160.0 48.0 200.0 0.0 0.0 -1.0 0.0 1.0 0.0 1.0 0.0 0.0 3005.dat
1 7 90.0 48.0 220.0 1.0 0.0 0.0 0.0 1.0 0.0 0.0 0.0 1.0 3004.dat
1 7 120.00000000000001 48.0 220.0 0.0 0.0 -1.0 0.0 1.0 0.0 1.0 0.0 0.0 3005.dat
1 7 70.0 24.0 20.0 1.0 0.0 0.0 0.0 1.0 0.0 0.0 0.0 1.0 3004.dat
1 7 110.0 24.0 20.0 1.0 0.0 0.0 0.0 1.0 0.0 0.0 0.0 1.0 3004.dat
1 7 140.0 24.0 20.0 0.0 0.0 -1.0 0.0 1.0 0.0 1.0 0.0 0.0 3005.dat
1 7 50.0 24.0 40.0 1.0 0.0 0.0 0.0 1.0 0.0 0.0 0.0 1.0 3004.dat
1 7 90.0 24.0 40.0 1.0 0.0 0.0 0.0 1.0 0.0 0.0 0.0 1.0 3004.dat
1 7 130.0 24.0 40.0 1.0 0.0 0.0 0.0 1.0 0.0 0.0 0.0 1.0 3004.dat
1 7 170.0 24.0 40.0 1.0 0.0 0.0 0.0 1.0 0.0 0.0 0.0 1.0 3004.dat
1 7 20.0 24.0 60.00000000000001 0.0 0.0 -1.0 0.0 1.0 0.0 1.0 0.0 0.0 3005.dat
1 7 50.0 24.0 60.00000000000001 1.0 0.0 0.0 0.0 1.0 0.0 0.0 0.0 1.0 3004.dat
1 7 90.0 24.0 60.00000000000001 1.0 0.0 0.0 0.0 1.0 0.0 0.0 0.0 1.0 3004.dat
1 7 130.0 24.0 60.00000000000001 1.0 0.0 0.0 0.0 1.0 0.0 0.0 0.0 1.0 3004.dat
1 7 170.0 24.0 60.00000000000001 1.0 0.0 0.0 0.0 1.0 0.0 0.0 0.0 1.0 3004.dat
1 7 0.0 24.0 70.0 0.0 0.0 -1.0 0.0 1.0 0.0 1.0 0.0 0.0 3004.dat
1 7 30.0 24.0 80.0 1.0 0.0 0.0 0.0 1.0 0.0 0.0 0.0 1.0 3004.dat
1 7 60.00000000000001 24.0 80.0 0.0 0.0 -1.0 0.0 1.0 0.0 1.0 0.0 0.0 3005.dat
1 7 150.0 24.0 80.0 1.0 0.0 0.0 0.0 1.0 0.0 0.0 0.0 1.0 3004.dat
1 7 190.0 24.0 80.0 1.0 0.0 0.0 0.0 1.0 0.0 0.0 0.0 1.0 3004.dat
1 7 10.0 24.0 100.0 1.0 0.0 0.0 0.0 1.0 0.0 0.0 0.0 1.0 3004.dat
1 7 40.0 24.0 100.0 0.0 0.0 -1.0 0.0 1.0 0.0 1.0 0.0 0.0 3005.dat
1 7 170.0 24.0 100.0 1.0 0.0 0.0 0.0 1.0 0.0 0.0 0.0 1.0 3004.dat
1 7 200.0 24.0 110.0 0.0 0.0 1.0 0.0 1.0 0.0 -1.0 0.0 0.0 3004.dat
1 7 0.0 24.0 120.00000000000001 0.0 0.0 -1.0 0.0 1.0 0.0 1.0 0.0 0.0 3005.dat
1 7 30.0 24.0 120.00000000000001 1.0 0.0 0.0 0.0 1.0 0.0 0.0 0.0 1.0 3004.dat
1 7 170.0 24.0 120.00000000000001 1.0 0.0 0.0 0.0 1.0 0.0 0.0 0.0 1.0 3004.dat
1 7 10.0 24.0 140.0 1.0 0.0 0.0 0.0 1.0 0.0 0.0 0.0 1.0 3004.dat
1 7 40.0 24.0 140.0 0.0 0.0 -1.0 0.0 1.0 0.0 1.0 0.0 0.0 3005.dat
1 7 170.0 24.0 140.0 1.0 0.0 0.0 0.0 1.0 0.0 0.0 0.0 1.0 3004.dat
1 7 200.0 24.0 150.0 0.0 0.0 1.0 0.0 1.0 0.0 -1.0 0.0 0.0 3004.dat
1 7 10.0 24.0 160.0 1.0 0.0 0.0 0.0 1.0 0.0 0.0 0.0 1.0 3004.dat
1 7 50.0 24.0 160.0 1.0 0.0 0.0 0.0 1.0 0.0 0.0 0.0 1.0 3004.dat
1 7 150.0 24.0 160.0 1.0 0.0 0.0 0.0 1.0 0.0 0.0 0.0 1.0 3004.dat
1 7 180.0 24.0 170.0 0.0 0.0 1.0 0.0 1.0 0.0 -1.0 0.0 0.0 3004.dat
1 7 30.0 24.0 180.0 1.0 0.0 0.0 0.0 1.0 0.0 0.0 0.0 1.0 3004.dat
1 7 70.0 24.0 180.0 1.0 0.0 0.0 0.0 1.0 0.0 0.0 0.0 1.0 3004.dat
1 7 110.0 24.0 180.0 1.0 0.0 0.0 0.0 1.0 0.0 0.0 0.0 1.0 3004.dat
1 7 150.0 24.0 180.0 1.0 0.0 0.0 0.0 1.0 0.0 0.0 0.0 1.0 3004.dat
1 7 30.0 24.0 200.0 -1.0 0.0 0.0 0.0 1.0 0.0 0.0 0.0 -1.0 3004.dat
1 7 70.0 24.0 200.0 1.0 0.0 0.0 0.0 1.0 0.0 0.0 0.0 1.0 3004.dat
1 7 110.0 24.0 200.0 1.0 0.0 0.0 0.0 1.0 0.0 0.0 0.0 1.0 3004.dat
1 7 150.0 24.0 200.0 1.0 0.0 0.0 0.0 1.0 0.0 0.0 0.0 1.0 3004.dat
1 7 70.0 24.0 220.0 1.0 0.0 0.0 0.0 1.0 0.0 0.0 0.0 1.0 3004.dat
1 7 110.0 24.0 220.0 1.0 0.0 0.0 0.0 1.0 0.0 0.0 0.0 1.0 3004.dat
1 7 140.0 24.0 220.0 0.0 0.0 -1.0 0.0 1.0 0.0 1.0 0.0 0.0 3005.dat
1 7 80.0 0.0 10.0 0.0 0.0 -1.0 0.0 1.0 0.0 1.0 0.0 0.0 3004.dat
1 7 100.0 0.0 10.0 0.0 0.0 -1.0 0.0 1.0 0.0 1.0 0.0 0.0 3004.dat
1 7 120.00000000000001 0.0 10.0 0.0 0.0 -1.0 0.0 1.0 0.0 1.0 0.0 0.0 3004.dat
1 7 40.0 0.0 30.0 0.0 0.0 -1.0 0.0 1.0 0.0 1.0 0.0 0.0 3004.dat
1 7 60.00000000000001 0.0 30.0 0.0 0.0 -1.0 0.0 1.0 0.0 1.0 0.0 0.0 3004.dat
1 7 80.0 0.0 40.0 0.0 0.0 -1.0 0.0 1.0 0.0 1.0 0.0 0.0 3005.dat
1 7 100.0 0.0 50.0 0.0 0.0 1.0 0.0 1.0 0.0 -1.0 0.0 0.0 3004.dat
1 7 120.00000000000001 0.0 50.0 0.0 0.0 1.0 0.0 1.0 0.0 -1.0 0.0 0.0 3004.dat
1 7 140.0 0.0 30.0 0.0 0.0 -1.0 0.0 1.0 0.0 1.0 0.0 0.0 3004.dat
1 7 160.0 0.0 30.0 0.0 0.0 -1.0 0.0 1.0 0.0 1.0 0.0 0.0 3004.dat
1 7 20.0 0.0 50.0 0.0 0.0 -1.0 0.0 1.0 0.0 1.0 0.0 0.0 3004.dat
1 7 40.0 0.0 60.00000000000001 0.0 0.0 -1.0 0.0 1.0 0.0 1.0 0.0 0.0 3005.dat
1 7 70.0 0.0 60.00000000000001 1.0 0.0 0.0 0.0 1.0 0.0 0.0 0.0 1.0 3004.dat
1 7 140.0 0.0 60.00000000000001 0.0 0.0 -1.0 0.0 1.0 0.0 1.0 0.0 0.0 3005.dat
1 7 160.0 0.0 70.0 0.0 0.0 1.0 0.0 1.0 0.0 -1.0 0.0 0.0 3004.dat
1 7 180.0 0.0 50.0 0.0 0.0 -1.0 0.0 1.0 0.0 1.0 0.0 0.0 3004.dat
1 7 0.0 0.0 70.0 0.0 0.0 -1.0 0.0 1.0 0.0 1.0 0.0 0.0 3004.dat
1 7 20.0 0.0 80.0 0.0 0.0 -1.0 0.0 1.0 0.0 1.0 0.0 0.0 3005.dat
1 7 50.0 0.0 80.0 1.0 0.0 0.0 0.0 1.0 0.0 0.0 0.0 1.0 3004.dat
1 7 140.0 0.0 80.0 0.0 0.0 -1.0 0.0 1.0 0.0 1.0 0.0 0.0 3005.dat
1 7 180.0 0.0 90.0 0.0 0.0 1.0 0.0 1.0 0.0 -1.0 0.0 0.0 3004.dat
1 7 200.0 0.0 90.0 0.0 0.0 1.0 0.0 1.0 0.0 -1.0 0.0 0.0 3004.dat
1 7 0.0 0.0 110.0 0.0 0.0 1.0 0.0 1.0 0.0 -1.0 0.0 0.0 3004.dat
1 7 30.0 0.0 100.0 1.0 0.0 0.0 0.0 1.0 0.0 0.0 0.0 1.0 3004.dat
1 7 160.0 0.0 110.0 0.0 0.0 1.0 0.0 1.0 0.0 -1.0 0.0 0.0 3004.dat
1 7 20.0 0.0 130.0 0.0 0.0 1.0 0.0 1.0 0.0 -1.0 0.0 0.0 3004.dat
1 7 40.0 0.0 130.0 0.0 0.0 1.0 0.0 1.0 0.0 -1.0 0.0 0.0 3004.dat
1 7 180.0 0.0 130.0 0.0 0.0 1.0 0.0 1.0 0.0 -1.0 0.0 0.0 3004.dat
1 7 200.0 0.0 130.0 0.0 0.0 1.0 0.0 1.0 0.0 -1.0 0.0 0.0 3004.dat
1 7 0.0 0.0 150.0 0.0 0.0 1.0 0.0 1.0 0.0 -1.0 0.0 0.0 3004.dat
1 7 160.0 0.0 150.0 0.0 0.0 1.0 0.0 1.0 0.0 -1.0 0.0 0.0 3004.dat
1 7 20.0 0.0 170.0 0.0 0.0 1.0 0.0 1.0 0.0 -1.0 0.0 0.0 3004.dat
1 7 40.0 0.0 170.0 0.0 0.0 1.0 0.0 1.0 0.0 -1.0 0.0 0.0 3004.dat
1 7 60.00000000000001 0.0 170.0 0.0 0.0 1.0 0.0 1.0 0.0 -1.0 0.0 0.0 3004.dat
1 7 140.0 0.0 170.0 0.0 0.0 1.0 0.0 1.0 0.0 -1.0 0.0 0.0 3004.dat
1 7 180.0 0.0 170.0 0.0 0.0 1.0 0.0 1.0 0.0 -1.0 0.0 0.0 3004.dat
1 7 80.0 0.0 190.0 0.0 0.0 1.0 0.0 1.0 0.0 -1.0 0.0 0.0 3004.dat
1 7 100.0 0.0 190.0 0.0 0.0 1.0 0.0 1.0 0.0 -1.0 0.0 0.0 3004.dat
1 7 120.00000000000001 0.0 190.0 0.0 0.0 1.0 0.0 1.0 0.0 -1.0 0.0 0.0 3004.dat
1 7 160.0 0.0 190.0 0.0 0.0 1.0 0.0 1.0 0.0 -1.0 0.0 0.0 3004.dat
1 7 40.0 0.0 200.0 0.0 0.0 -1.0 0.0 1.0 0.0 1.0 0.0 0.0 3005.dat
1 7 60.00000000000001 0.0 210.0 0.0 0.0 1.0 0.0 1.0 0.0 -1.0 0.0 0.0 3004.dat
1 7 140.0 0.0 200.0 0.0 0.0 -1.0 0.0 1.0 0.0 1.0 0.0 0.0 3005.dat
1 7 90.0 0.0 220.0 1.0 0.0 0.0 0.0 1.0 0.0 0.0 0.0 1.0 3004.dat
1 7 120.00000000000001 0.0 220.0 0.0 0.0 -1.0 0.0 1.0 0.0 1.0 0.0 0.0 3005.dat
