0 
0 Name: main.ldr
0 Author: 
1 7 10 -24 20 0 0 1 0 1 0 -1 0 0 3004.dat
1 7 50 -24 20 0 0 1 0 1 0 -1 0 0 3004.dat
1 7 110 -24 20 0 0 1 0 1 0 -1 0 0 3004.dat
1 7 150 -24 20 0 0 1 0 1 0 -1 0 0 3004.dat
1 7 10 -48 0 0 0 -1 0 1 0 1 0 0 3004.dat
1 7 40 -48 10 -1 0 0 0 1 0 0 0 -1 3004.dat
1 7 110 -48 10 0 0 -1 0 1 0 1 0 0 3005.dat
1 7 150 -48 20 0 0 1 0 1 0 -1 0 0 3004.dat
1 7 10 -48 30 0 0 -1 0 1 0 1 0 0 3005.dat
1 7 50 -48 30 0 0 -1 0 1 0 1 0 0 3005.dat
1 7 120 -48 30 1 0 0 0 1 0 0 0 1 3004.dat
1 7 0 -56 10 -1 0 0 0 1 0 0 0 -1 3023.dat
1 7 40 -56 10 1 0 0 0 1 0 0 0 1 3023.dat
1 7 100 -56 10 -1 0 0 0 1 0 0 0 -1 3023.dat
1 7 140 -56 10 -1 0 0 0 1 0 0 0 -1 3023.dat
1 7 0 -56 30 -1 0 0 0 1 0 0 0 -1 3023.dat
1 7 40 -56 30 -1 0 0 0 1 0 0 0 -1 3023.dat
1 7 100 -56 30 -1 0 0 0 1 0 0 0 -1 3023.dat
1 7 140 -56 30 1 0 0 0 1 0 0 0 1 3023.dat
1 7 10 -64 0 0 0 -1 0 1 0 1 0 0 3023.dat
1 7 40 -64 10 1 0 0 0 1 0 0 0 1 3023.dat
1 7 80 -64 10 -1 0 0 0 1 0 0 0 -1 3023.dat
1 7 70 -56 20 0 0 1 0 1 0 -1 0 0 3023.dat
1 7 60 -80 30 -1 0 0 0 1 0 0 0 -1 3004.dat
1 7 120 -64 10 1 0 0 0 1 0 0 0 1 3023.dat
1 7 150 -64 0 0 0 -1 0 1 0 1 0 0 3023.dat
1 7 0 -64 30 -1 0 0 0 1 0 0 0 -1 3023.dat
1 7 30 -64 30 0 0 -1 0 1 0 1 0 0 3024.dat
1 7 100 -64 30 1 0 0 0 1 0 0 0 1 3023.dat
1 7 140 -64 30 1 0 0 0 1 0 0 0 1 3023.dat
1 7 0 -72 10 -1 0 0 0 1 0 0 0 -1 3023.dat
1 7 40 -72 10 1 0 0 0 1 0 0 0 1 3023.dat
1 7 80 -72 10 1 0 0 0 1 0 0 0 1 3023.dat
1 7 120 -72 10 1 0 0 0 1 0 0 0 1 3023.dat
1 7 150 -72 0 0 0 -1 0 1 0 1 0 0 3023.dat
1 7 0 -72 30 -1 0 0 0 1 0 0 0 -1 3023.dat
1 7 30 -72 30 0 0 -1 0 1 0 1 0 0 3024.dat
1 7 100 -72 30 1 0 0 0 1 0 0 0 1 3023.dat
1 7 140 -72 30 1 0 0 0 1 0 0 0 1 3023.dat
1 7 20 -80 10 -1 0 0 0 1 0 0 0 -1 3023.dat
1 7 60 -80 10 1 0 0 0 1 0 0 0 1 3023.dat
1 7 100 -80 10 1 0 0 0 1 0 0 0 1 3023.dat
1 7 130 -80 20 0 0 1 0 1 0 -1 0 0 3023.dat
1 7 20 -80 30 -1 0 0 0 1 0 0 0 -1 3023.dat
1 7 100 -80 30 1 0 0 0 1 0 0 0 1 3023.dat
1 7 40 -88 10 -1 0 0 0 1 0 0 0 -1 3023.dat
1 7 80 -88 10 1 0 0 0 1 0 0 0 1 3023.dat
1 7 110 -88 20 0 0 1 0 1 0 -1 0 0 3023.dat
1 7 40 -88 30 -1 0 0 0 1 0 0 0 -1 3023.dat
1 7 80 -88 30 1 0 0 0 1 0 0 0 1 3023.dat
