0 
0 Name: main.ldr
0 Author: 
1 7 10 -24 -10 0 0 -1 0 1 0 1 0 0 3005.dat
1 7 30 0 -10 1 0 0 0 1 0 0 0 1 54200.dat
1 7 50 0 -10 1 0 0 0 1 0 0 0 1 54200.dat
1 7 70 -24 -10 0 0 -1 0 1 0 1 0 0 3005.dat
1 7 70 -24 30 0 0 -1 0 1 0 1 0 0 3005.dat
1 7 70 -24 70 0 0 -1 0 1 0 1 0 0 3005.dat
1 7 70 -24 110 0 0 -1 0 1 0 1 0 0 3005.dat
1 7 10 -24 150 0 0 -1 0 1 0 1 0 0 3005.dat
1 7 30 0 150 -1 0 0 0 1 0 0 0 -1 54200.dat
1 7 70 -24 150 0 0 -1 0 1 0 1 0 0 3005.dat
1 7 30 -8 10 0 0 -1 0 1 0 1 0 0 3024.dat
1 7 40 -8 130 1 0 0 0 1 0 0 0 1 3023.dat
1 7 50 -8 150 0 0 -1 0 1 0 1 0 0 3024.dat
1 7 30 -16 10 0 0 -1 0 1 0 1 0 0 3024.dat
1 7 30 -16 120 0 0 -1 0 1 0 1 0 0 3023.dat
1 7 50 -16 120 0 0 -1 0 1 0 1 0 0 3023.dat
1 7 30 -24 10 0 0 -1 0 1 0 1 0 0 3024.dat
1 7 30 -24 100 0 0 -1 0 1 0 1 0 0 3023.dat
1 7 50 -24 100 0 0 -1 0 1 0 1 0 0 3023.dat
1 7 40 -24 130 1 0 0 0 1 0 0 0 1 3023.dat
1 7 10 -48 -10 0 0 -1 0 1 0 1 0 0 3005.dat
1 7 70 -48 -10 0 0 -1 0 1 0 1 0 0 3005.dat
1 7 70 -48 30 0 0 -1 0 1 0 1 0 0 3005.dat
1 7 70 -48 70 0 0 -1 0 1 0 1 0 0 3005.dat
1 7 70 -48 110 0 0 -1 0 1 0 1 0 0 3005.dat
1 7 10 -48 150 0 0 -1 0 1 0 1 0 0 3005.dat
1 7 70 -48 150 0 0 -1 0 1 0 1 0 0 3005.dat
1 7 30 -32 80 0 0 -1 0 1 0 1 0 0 3023.dat
1 7 20 -24 70 -1 0 0 0 1 0 0 0 -1 3023.dat
1 7 20 -16 70 1 0 0 0 1 0 0 0 1 3023.dat
1 7 10 -32 70 0 0 -1 0 1 0 1 0 0 3024.dat
1 7 50 -32 80 0 0 -1 0 1 0 1 0 0 3023.dat
1 7 50 -24 60 0 0 -1 0 1 0 1 0 0 3023.dat
1 7 50 -32 40 0 0 -1 0 1 0 1 0 0 3023.dat
1 7 50 -24 20 0 0 -1 0 1 0 1 0 0 3023.dat
1 7 40 -16 30 -1 0 0 0 1 0 0 0 -1 3023.dat
1 7 20 -24 30 -1 0 0 0 1 0 0 0 -1 3023.dat
1 7 10 -16 30 0 0 -1 0 1 0 1 0 0 3024.dat
1 7 10 -48 30 0 0 -1 0 1 0 1 0 0 3005.dat
1 7 30 -32 40 0 0 1 0 1 0 -1 0 0 3023.dat
1 7 30 -24 50 0 0 -1 0 1 0 1 0 0 3024.dat
1 7 20 -32 110 -1 0 0 0 1 0 0 0 -1 3023.dat
1 7 10 -24 110 0 0 -1 0 1 0 1 0 0 3024.dat
1 7 50 -32 110 0 0 -1 0 1 0 1 0 0 3024.dat
1 7 10 -56 70 0 0 -1 0 1 0 1 0 0 3005.dat
1 7 10 -56 110 0 0 -1 0 1 0 1 0 0 3005.dat
1 7 10 -56 -10 0 0 -1 0 1 0 1 0 0 3024.dat
1 7 70 -56 -10 0 0 -1 0 1 0 1 0 0 3024.dat
1 7 10 -56 30 0 0 -1 0 1 0 1 0 0 3024.dat
1 7 70 -56 30 0 0 -1 0 1 0 1 0 0 3024.dat
1 7 70 -56 70 0 0 -1 0 1 0 1 0 0 3024.dat
1 7 70 -56 110 0 0 -1 0 1 0 1 0 0 3024.dat
1 7 10 -56 150 0 0 -1 0 1 0 1 0 0 3024.dat
1 7 70 -56 150 0 0 -1 0 1 0 1 0 0 3024.dat
1 7 10 -64 -10 0 0 -1 0 1 0 1 0 0 3024.dat
1 7 70 -64 -10 0 0 -1 0 1 0 1 0 0 3024.dat
1 7 10 -64 20 0 0 -1 0 1 0 1 0 0 3023.dat
1 7 70 -64 20 0 0 -1 0 1 0 1 0 0 3023.dat
1 7 10 -64 60 0 0 -1 0 1 0 1 0 0 3023.dat
1 7 70 -64 60 0 0 -1 0 1 0 1 0 0 3023.dat
1 7 10 -64 100 0 0 -1 0 1 0 1 0 0 3023.dat
1 7 70 -64 100 0 0 -1 0 1 0 1 0 0 3023.dat
1 7 10 -64 140 0 0 -1 0 1 0 1 0 0 3023.dat
1 7 70 -64 140 0 0 -1 0 1 0 1 0 0 3023.dat
1 7 10 -72 -10 0 0 -1 0 1 0 1 0 0 3024.dat
1 7 70 -72 -10 0 0 -1 0 1 0 1 0 0 3024.dat
1 7 10 -72 30 0 0 -1 0 1 0 1 0 0 3024.dat
1 7 70 -72 30 0 0 -1 0 1 0 1 0 0 3024.dat
1 7 10 -72 70 0 0 -1 0 1 0 1 0 0 3024.dat
1 7 70 -72 70 0 0 -1 0 1 0 1 0 0 3024.dat
1 7 10 -72 110 0 0 -1 0 1 0 1 0 0 3024.dat
1 7 70 -72 110 0 0 -1 0 1 0 1 0 0 3024.dat
1 7 10 -72 150 0 0 -1 0 1 0 1 0 0 3024.dat
1 7 70 -72 150 0 0 -1 0 1 0 1 0 0 3024.dat
