0 
0 Name: main.ldr
0 Author: 
1 7 -10 -24 20 0 0 -1 0 1 0 1 0 0 3004.dat
1 7 10 -24 20 0 0 -1 0 1 0 1 0 0 3004.dat
1 7 30 -24 20 0 0 -1 0 1 0 1 0 0 3004.dat
1 7 50 -24 20 0 0 -1 0 1 0 1 0 0 3004.dat
1 7 70 -24 20 0 0 -1 0 1 0 1 0 0 3004.dat
1 7 90 -24 20 0 0 -1 0 1 0 1 0 0 3004.dat
1 7 -10 -24 60 0 0 1 0 1 0 -1 0 0 3004.dat
1 7 90 -24 60 0 0 1 0 1 0 -1 0 0 3004.dat
1 7 -10 -24 90 0 0 -1 0 1 0 1 0 0 3005.dat
1 7 10 -24 90 0 0 -1 0 1 0 1 0 0 3005.dat
1 7 80 -24 90 1 0 0 0 1 0 0 0 1 3004.dat
1 7 -10 -48 40 0 0 -1 0 1 0 1 0 0 3004.dat
1 7 -10 -48 80 0 0 1 0 1 0 -1 0 0 3004.dat
1 7 20 -32 30 -1 0 0 0 1 0 0 0 -1 3023.dat
1 7 60 -32 30 1 0 0 0 1 0 0 0 1 3023.dat
1 7 90 -32 40 0 0 1 0 1 0 -1 0 0 3023.dat
1 7 90 -32 70 0 0 -1 0 1 0 1 0 0 3024.dat
1 7 20 -32 90 1 0 0 0 1 0 0 0 1 3023.dat
1 7 60 -32 90 -1 0 0 0 1 0 0 0 -1 3023.dat
1 7 90 -32 90 0 0 -1 0 1 0 1 0 0 3024.dat
1 7 20 -56 30 -1 0 0 0 1 0 0 0 -1 3004.dat
1 7 60 -56 30 1 0 0 0 1 0 0 0 1 3004.dat
1 7 90 -56 30 0 0 -1 0 1 0 1 0 0 3005.dat
1 7 20 -56 90 -1 0 0 0 1 0 0 0 -1 3004.dat
1 7 50 -56 90 0 0 -1 0 1 0 1 0 0 3005.dat
1 7 80 -40 50 -1 0 0 0 1 0 0 0 -1 3023.dat
1 7 80 -40 70 -1 0 0 0 1 0 0 0 -1 3023.dat
1 7 70 -40 90 0 0 -1 0 1 0 1 0 0 3024.dat
1 7 90 -48 60 0 0 1 0 1 0 -1 0 0 3023.dat
1 7 80 -48 90 1 0 0 0 1 0 0 0 1 3023.dat
1 7 -10 -56 30 0 0 -1 0 1 0 1 0 0 3024.dat
1 7 -10 -56 90 0 0 -1 0 1 0 1 0 0 3024.dat
1 7 90 -56 90 0 0 -1 0 1 0 1 0 0 3024.dat
