0 
0 Name: main.ldr
0 Author: 
1 7 30 -24 30 0 0 -1 0 1 0 1 0 0 3005.dat
1 7 70 -24 30 0 0 -1 0 1 0 1 0 0 3005.dat
1 7 110 -24 30 0 0 -1 0 1 0 1 0 0 3005.dat
1 7 20 -24 70 1 0 0 0 1 0 0 0 1 3004.dat
1 7 60 -24 70 1 0 0 0 1 0 0 0 1 3004.dat
1 7 100 -24 70 1 0 0 0 1 0 0 0 1 3004.dat
1 7 130 -24 70 0 0 -1 0 1 0 1 0 0 3005.dat
1 7 30 -24 110 0 0 -1 0 1 0 1 0 0 3005.dat
1 7 70 -24 100 0 0 -1 0 1 0 1 0 0 3004.dat
1 7 110 -24 110 0 0 -1 0 1 0 1 0 0 3005.dat
1 7 70 -24 130 0 0 -1 0 1 0 1 0 0 3005.dat
1 7 70 -8 10 0 0 -1 0 1 0 1 0 0 3024.dat
1 7 70 -16 10 0 0 -1 0 1 0 1 0 0 3024.dat
1 7 70 -24 10 0 0 -1 0 1 0 1 0 0 3024.dat
1 7 30 -48 30 0 0 -1 0 1 0 1 0 0 3005.dat
1 7 110 -48 30 0 0 -1 0 1 0 1 0 0 3005.dat
1 7 30 -48 70 0 0 -1 0 1 0 1 0 0 3005.dat
1 7 110 -48 70 0 0 -1 0 1 0 1 0 0 3005.dat
1 7 30 -48 110 0 0 -1 0 1 0 1 0 0 3005.dat
1 7 70 -48 110 0 0 -1 0 1 0 1 0 0 3005.dat
1 7 110 -48 110 0 0 -1 0 1 0 1 0 0 3005.dat
1 7 70 -32 10 0 0 -1 0 1 0 1 0 0 3024.dat
1 7 70 -32 40 0 0 1 0 1 0 -1 0 0 3023.dat
1 7 10 -32 70 0 0 -1 0 1 0 1 0 0 3024.dat
1 7 60 -32 70 1 0 0 0 1 0 0 0 1 3023.dat
1 7 90 -32 70 0 0 -1 0 1 0 1 0 0 3024.dat
1 7 130 -32 70 0 0 -1 0 1 0 1 0 0 3024.dat
1 7 70 -32 90 0 0 -1 0 1 0 1 0 0 3024.dat
1 7 70 -32 130 0 0 -1 0 1 0 1 0 0 3024.dat
1 7 70 -40 10 0 0 -1 0 1 0 1 0 0 3024.dat
1 7 70 -40 30 0 0 -1 0 1 0 1 0 0 3024.dat
1 7 70 -40 60 0 0 1 0 1 0 -1 0 0 3023.dat
1 7 10 -40 70 0 0 -1 0 1 0 1 0 0 3024.dat
1 7 50 -40 70 0 0 -1 0 1 0 1 0 0 3024.dat
1 7 90 -40 70 0 0 -1 0 1 0 1 0 0 3024.dat
1 7 130 -40 70 0 0 -1 0 1 0 1 0 0 3024.dat
1 7 70 -40 90 0 0 -1 0 1 0 1 0 0 3024.dat
1 7 70 -40 130 0 0 -1 0 1 0 1 0 0 3024.dat
1 7 70 -48 0 0 0 -1 0 1 0 1 0 0 3023.dat
1 7 70 -48 40 0 0 1 0 1 0 -1 0 0 3023.dat
1 7 10 -48 70 0 0 -1 0 1 0 1 0 0 3024.dat
1 7 60 -48 70 1 0 0 0 1 0 0 0 1 3023.dat
1 7 90 -48 70 0 0 -1 0 1 0 1 0 0 3024.dat
1 7 130 -48 70 0 0 -1 0 1 0 1 0 0 3024.dat
1 7 70 -48 90 0 0 -1 0 1 0 1 0 0 3024.dat
1 7 70 -48 130 0 0 -1 0 1 0 1 0 0 3024.dat
1 7 70 -56 0 0 0 -1 0 1 0 1 0 0 3023.dat
1 7 40 -56 30 1 0 0 0 1 0 0 0 1 3023.dat
1 7 80 -56 30 1 0 0 0 1 0 0 0 1 3023.dat
1 7 110 -56 40 0 0 1 0 1 0 -1 0 0 3023.dat
1 7 70 -56 60 0 0 1 0 1 0 -1 0 0 3023.dat
1 7 20 -56 70 1 0 0 0 1 0 0 0 1 3023.dat
1 7 50 -56 60 0 0 -1 0 1 0 1 0 0 3023.dat
1 7 100 -56 70 1 0 0 0 1 0 0 0 1 3023.dat
1 7 130 -56 70 0 0 -1 0 1 0 1 0 0 3024.dat
1 7 70 -56 100 0 0 1 0 1 0 -1 0 0 3023.dat
1 7 30 -56 100 0 0 -1 0 1 0 1 0 0 3023.dat
1 7 100 -56 110 -1 0 0 0 1 0 0 0 -1 3023.dat
1 7 70 -56 130 0 0 -1 0 1 0 1 0 0 3024.dat
1 7 70 -64 0 0 0 -1 0 1 0 1 0 0 3023.dat
1 7 30 -64 40 0 0 1 0 1 0 -1 0 0 3023.dat
1 7 20 -56 50 -1 0 0 0 1 0 0 0 -1 3023.dat
1 7 60 -64 30 1 0 0 0 1 0 0 0 1 3023.dat
1 7 100 -64 30 1 0 0 0 1 0 0 0 1 3023.dat
1 7 70 -64 50 0 0 -1 0 1 0 1 0 0 3024.dat
1 7 110 -64 60 0 0 1 0 1 0 -1 0 0 3023.dat
1 7 20 -64 70 1 0 0 0 1 0 0 0 1 3023.dat
1 7 60 -64 70 1 0 0 0 1 0 0 0 1 3023.dat
1 7 90 -64 60 0 0 -1 0 1 0 1 0 0 3023.dat
1 7 130 -64 60 0 0 -1 0 1 0 1 0 0 3023.dat
1 7 30 -64 100 0 0 1 0 1 0 -1 0 0 3023.dat
1 7 70 -64 100 0 0 1 0 1 0 -1 0 0 3023.dat
1 7 100 -64 110 1 0 0 0 1 0 0 0 1 3023.dat
1 7 70 -64 130 0 0 -1 0 1 0 1 0 0 3024.dat
1 7 70 -72 40 0 0 1 0 1 0 -1 0 0 3023.dat
1 7 40 -72 70 1 0 0 0 1 0 0 0 1 3023.dat
1 7 70 -72 70 0 0 -1 0 1 0 1 0 0 3024.dat
1 7 100 -72 70 1 0 0 0 1 0 0 0 1 3023.dat
1 7 70 -72 100 0 0 1 0 1 0 -1 0 0 3023.dat
1 7 70 -80 20 0 0 -1 0 1 0 1 0 0 3023.dat
1 7 70 -80 60 0 0 1 0 1 0 -1 0 0 3023.dat
1 7 40 -80 70 1 0 0 0 1 0 0 0 1 3023.dat
1 7 100 -80 70 1 0 0 0 1 0 0 0 1 3023.dat
1 7 70 -80 100 0 0 1 0 1 0 -1 0 0 3023.dat
1 7 70 -88 40 0 0 1 0 1 0 -1 0 0 3023.dat
1 7 40 -88 70 1 0 0 0 1 0 0 0 1 3023.dat
1 7 70 -88 80 0 0 1 0 1 0 -1 0 0 3023.dat
1 7 90 -88 70 0 0 -1 0 1 0 1 0 0 3024.dat
1 7 70 -88 50 1 0 0 0 1 0 0 0 1 54200.dat
1 7 50 -88 70 0 0 1 0 1 0 -1 0 0 54200.dat
1 7 90 -88 70 0 0 -1 0 1 0 1 0 0 54200.dat
1 7 70 -88 90 -1 0 0 0 1 0 0 0 -1 54200.dat
1 7 70 -96 70 0 0 -1 0 1 0 1 0 0 3024.dat
1 7 70 -104 70 0 0 -1 0 1 0 1 0 0 3024.dat
