0 
0 Name: main.ldr
0 Author: 
1 7 20 -8 10 1 0 0 0 1 0 0 0 1 3023.dat
1 7 60 -8 10 1 0 0 0 1 0 0 0 1 3023.dat
1 7 100 -8 10 1 0 0 0 1 0 0 0 1 3023.dat
1 7 140 -8 10 1 0 0 0 1 0 0 0 1 3023.dat
1 7 170 -8 20 0 0 1 0 1 0 -1 0 0 3023.dat
1 7 10 -8 40 0 0 1 0 1 0 -1 0 0 3023.dat
1 7 30 -8 40 0 0 1 0 1 0 -1 0 0 3023.dat
1 7 50 -8 40 0 0 1 0 1 0 -1 0 0 3023.dat
1 7 70 -8 40 0 0 1 0 1 0 -1 0 0 3023.dat
1 7 90 -8 40 0 0 1 0 1 0 -1 0 0 3023.dat
1 7 110 -8 40 0 0 1 0 1 0 -1 0 0 3023.dat
1 7 130 -8 40 0 0 1 0 1 0 -1 0 0 3023.dat
1 7 150 -8 40 0 0 1 0 1 0 -1 0 0 3023.dat
1 7 30 -32 30 0 0 -1 0 1 0 1 0 0 3005.dat
1 7 70 -32 30 0 0 -1 0 1 0 1 0 0 3005.dat
1 7 110 -32 30 0 0 -1 0 1 0 1 0 0 3005.dat
1 7 150 -32 30 0 0 -1 0 1 0 1 0 0 3005.dat
1 7 30 -40 30 0 0 -1 0 1 0 1 0 0 3024.dat
1 7 70 -40 30 0 0 -1 0 1 0 1 0 0 3024.dat
1 7 110 -40 30 0 0 -1 0 1 0 1 0 0 3024.dat
1 7 150 -40 30 0 0 -1 0 1 0 1 0 0 3024.dat
1 7 40 -48 30 1 0 0 0 1 0 0 0 1 3023.dat
1 7 80 -48 30 1 0 0 0 1 0 0 0 1 3023.dat
1 7 120 -48 30 1 0 0 0 1 0 0 0 1 3023.dat
1 7 150 -48 30 0 0 -1 0 1 0 1 0 0 3024.dat
1 7 30 -56 30 0 0 -1 0 1 0 1 0 0 3024.dat
1 7 60 -56 30 1 0 0 0 1 0 0 0 1 3023.dat
1 7 100 -56 30 1 0 0 0 1 0 0 0 1 3023.dat
1 7 140 -56 30 1 0 0 0 1 0 0 0 1 3023.dat
1 7 30 -64 30 0 0 -1 0 1 0 1 0 0 3024.dat
1 7 60 -64 30 1 0 0 0 1 0 0 0 1 3023.dat
1 7 100 -64 30 1 0 0 0 1 0 0 0 1 3023.dat
1 7 140 -64 30 1 0 0 0 1 0 0 0 1 3023.dat
1 7 30 -64 30 0 0 1 0 1 0 -1 0 0 54200.dat
1 7 150 -64 30 0 0 -1 0 1 0 1 0 0 54200.dat
1 7 60 -72 30 1 0 0 0 1 0 0 0 1 3023.dat
1 7 100 -72 30 1 0 0 0 1 0 0 0 1 3023.dat
1 7 130 -72 30 0 0 -1 0 1 0 1 0 0 3024.dat
1 7 50 -80 30 0 0 -1 0 1 0 1 0 0 3024.dat
1 7 90 -80 30 0 0 -1 0 1 0 1 0 0 3024.dat
1 7 130 -80 30 0 0 -1 0 1 0 1 0 0 3024.dat
1 7 50 -104 30 0 0 -1 0 1 0 1 0 0 3005.dat
1 7 90 -104 30 0 0 -1 0 1 0 1 0 0 3005.dat
1 7 130 -104 30 0 0 -1 0 1 0 1 0 0 3005.dat
1 7 60 -112 30 1 0 0 0 1 0 0 0 1 3023.dat
1 7 100 -112 30 1 0 0 0 1 0 0 0 1 3023.dat
1 7 130 -112 30 0 0 -1 0 1 0 1 0 0 3024.dat
1 7 50 -120 30 0 0 -1 0 1 0 1 0 0 3024.dat
1 7 80 -120 30 1 0 0 0 1 0 0 0 1 3023.dat
1 7 120 -120 30 1 0 0 0 1 0 0 0 1 3023.dat
1 7 50 -128 30 0 0 -1 0 1 0 1 0 0 3024.dat
1 7 80 -128 30 1 0 0 0 1 0 0 0 1 3023.dat
1 7 120 -128 30 1 0 0 0 1 0 0 0 1 3023.dat
1 7 50 -128 30 0 0 1 0 1 0 -1 0 0 54200.dat
1 7 130 -128 30 0 0 -1 0 1 0 1 0 0 54200.dat
1 7 80 -136 30 1 0 0 0 1 0 0 0 1 3023.dat
1 7 110 -136 30 0 0 -1 0 1 0 1 0 0 3024.dat
1 7 70 -144 30 0 0 -1 0 1 0 1 0 0 3024.dat
1 7 110 -144 30 0 0 -1 0 1 0 1 0 0 3024.dat
1 7 70 -168 30 0 0 -1 0 1 0 1 0 0 3005.dat
1 7 110 -168 30 0 0 -1 0 1 0 1 0 0 3005.dat
1 7 80 -176 30 1 0 0 0 1 0 0 0 1 3023.dat
1 7 110 -176 30 0 0 -1 0 1 0 1 0 0 3024.dat
1 7 70 -184 30 0 0 -1 0 1 0 1 0 0 3024.dat
1 7 100 -184 30 1 0 0 0 1 0 0 0 1 3023.dat
1 7 70 -192 30 0 0 -1 0 1 0 1 0 0 3024.dat
1 7 100 -192 30 1 0 0 0 1 0 0 0 1 3023.dat
1 7 70 -192 30 0 0 1 0 1 0 -1 0 0 54200.dat
1 7 110 -192 30 0 0 -1 0 1 0 1 0 0 54200.dat
1 7 90 -200 30 0 0 -1 0 1 0 1 0 0 3024.dat
1 7 90 -208 30 0 0 -1 0 1 0 1 0 0 3024.dat
1 7 90 -232 30 0 0 -1 0 1 0 1 0 0 3005.dat
1 7 90 -240 30 0 0 -1 0 1 0 1 0 0 3024.dat
