0 
0 Name: main.ldr
0 Author: 
1 7 60 -24 10 1 0 0 0 1 0 0 0 1 3004.dat
1 7 10 -24 20 0 0 -1 0 1 0 1 0 0 3004.dat
1 7 30 -24 20 0 0 -1 0 1 0 1 0 0 3004.dat
1 7 60 -24 30 1 0 0 0 1 0 0 0 1 3004.dat
1 7 100 -24 30 1 0 0 0 1 0 0 0 1 3004.dat
1 7 10 -24 50 0 0 -1 0 1 0 1 0 0 3005.dat
1 7 40 -24 50 1 0 0 0 1 0 0 0 1 3004.dat
1 7 70 -24 50 0 0 -1 0 1 0 1 0 0 3005.dat
1 7 100 -24 50 1 0 0 0 1 0 0 0 1 3004.dat
1 7 50 -24 10 0 0 1 0 1 0 -1 0 0 54200.dat
1 7 70 -24 10 1 0 0 0 1 0 0 0 1 54200.dat
1 7 10 -24 30 1 0 0 0 1 0 0 0 1 54200.dat
1 7 30 -24 30 1 0 0 0 1 0 0 0 1 54200.dat
1 7 50 -48 30 0 0 -1 0 1 0 1 0 0 3005.dat
1 7 70 -48 30 0 0 -1 0 1 0 1 0 0 3005.dat
1 7 90 -24 30 1 0 0 0 1 0 0 0 1 54200.dat
1 7 110 -24 30 1 0 0 0 1 0 0 0 1 54200.dat
1 7 10 -24 50 -1 0 0 0 1 0 0 0 -1 54200.dat
1 7 30 -24 50 -1 0 0 0 1 0 0 0 -1 54200.dat
1 7 60 -48 50 1 0 0 0 1 0 0 0 1 3004.dat
1 7 90 -24 50 -1 0 0 0 1 0 0 0 -1 54200.dat
1 7 110 -24 50 -1 0 0 0 1 0 0 0 -1 54200.dat
1 7 50 -48 30 0 0 1 0 1 0 -1 0 0 54200.dat
1 7 70 -48 30 0 0 -1 0 1 0 1 0 0 54200.dat
1 7 50 -48 50 0 0 1 0 1 0 -1 0 0 54200.dat
1 7 70 -48 50 0 0 -1 0 1 0 1 0 0 54200.dat
