0 
0 Name: main.ldr
0 Author: 
1 7 20 -8 10 -1 0 0 0 1 0 0 0 -1 3023.dat
1 7 60 -8 10 1 0 0 0 1 0 0 0 1 3023.dat
1 7 100 -8 10 1 0 0 0 1 0 0 0 1 3023.dat
1 7 130 -8 20 0 0 1 0 1 0 -1 0 0 3023.dat
1 7 20 -8 30 -1 0 0 0 1 0 0 0 -1 3023.dat
1 7 50 -8 40 0 0 1 0 1 0 -1 0 0 3023.dat
1 7 70 -8 40 0 0 1 0 1 0 -1 0 0 3023.dat
1 7 90 -8 40 0 0 1 0 1 0 -1 0 0 3023.dat
1 7 110 -8 40 0 0 1 0 1 0 -1 0 0 3023.dat
1 7 30 -8 60 0 0 1 0 1 0 -1 0 0 3023.dat
1 7 130 -8 60 0 0 1 0 1 0 -1 0 0 3023.dat
1 7 50 -8 80 0 0 1 0 1 0 -1 0 0 3023.dat
1 7 70 -8 80 0 0 1 0 1 0 -1 0 0 3023.dat
1 7 90 -8 80 0 0 1 0 1 0 -1 0 0 3023.dat
1 7 110 -8 80 0 0 1 0 1 0 -1 0 0 3023.dat
1 7 30 -8 100 0 0 1 0 1 0 -1 0 0 3023.dat
1 7 130 -8 100 0 0 1 0 1 0 -1 0 0 3023.dat
1 7 60 -8 110 1 0 0 0 1 0 0 0 1 3023.dat
1 7 100 -8 110 1 0 0 0 1 0 0 0 1 3023.dat
1 7 110 -32 90 0 0 -1 0 1 0 1 0 0 3005.dat
1 7 60 -16 30 -1 0 0 0 1 0 0 0 -1 3023.dat
1 7 100 -16 30 -1 0 0 0 1 0 0 0 -1 3023.dat
1 7 70 -16 60 0 0 1 0 1 0 -1 0 0 3023.dat
1 7 90 -16 60 0 0 1 0 1 0 -1 0 0 3023.dat
1 7 110 -16 60 0 0 1 0 1 0 -1 0 0 3023.dat
1 7 50 -16 60 0 0 -1 0 1 0 1 0 0 3023.dat
1 7 60 -16 90 -1 0 0 0 1 0 0 0 -1 3023.dat
1 7 90 -16 90 0 0 -1 0 1 0 1 0 0 3024.dat
1 7 50 -40 30 0 0 -1 0 1 0 1 0 0 3005.dat
1 7 110 -40 30 0 0 -1 0 1 0 1 0 0 3005.dat
1 7 50 -40 90 0 0 -1 0 1 0 1 0 0 3005.dat
1 7 60 -24 50 -1 0 0 0 1 0 0 0 -1 3023.dat
1 7 90 -24 40 0 0 -1 0 1 0 1 0 0 3023.dat
1 7 60 -24 70 -1 0 0 0 1 0 0 0 -1 3023.dat
1 7 90 -24 80 0 0 1 0 1 0 -1 0 0 3023.dat
1 7 110 -56 90 0 0 -1 0 1 0 1 0 0 3005.dat
1 7 50 -64 30 0 0 -1 0 1 0 1 0 0 3005.dat
1 7 110 -64 30 0 0 -1 0 1 0 1 0 0 3005.dat
1 7 50 -64 90 0 0 -1 0 1 0 1 0 0 3005.dat
1 7 100 -64 90 -1 0 0 0 1 0 0 0 -1 3023.dat
1 7 40 -72 30 -1 0 0 0 1 0 0 0 -1 3023.dat
1 7 100 -72 30 -1 0 0 0 1 0 0 0 -1 3023.dat
1 7 80 -64 30 -1 0 0 0 1 0 0 0 -1 3023.dat
1 7 70 -72 20 0 0 -1 0 1 0 1 0 0 3023.dat
1 7 40 -72 90 -1 0 0 0 1 0 0 0 -1 3023.dat
1 7 80 -72 90 -1 0 0 0 1 0 0 0 -1 3023.dat
1 7 70 -64 80 0 0 -1 0 1 0 1 0 0 3023.dat
1 7 60 -72 70 -1 0 0 0 1 0 0 0 -1 3023.dat
1 7 50 -64 60 0 0 -1 0 1 0 1 0 0 3023.dat
1 7 40 -72 50 -1 0 0 0 1 0 0 0 -1 3023.dat
1 7 120 -72 90 1 0 0 0 1 0 0 0 1 3023.dat
1 7 30 -72 30 0 0 1 0 1 0 -1 0 0 54200.dat
1 7 30 -72 50 0 0 1 0 1 0 -1 0 0 54200.dat
1 7 60 -80 30 1 0 0 0 1 0 0 0 1 3023.dat
1 7 100 -80 30 1 0 0 0 1 0 0 0 1 3023.dat
1 7 60 -80 50 1 0 0 0 1 0 0 0 1 3023.dat
1 7 40 -80 70 -1 0 0 0 1 0 0 0 -1 3023.dat
1 7 20 -72 70 -1 0 0 0 1 0 0 0 -1 3023.dat
1 7 20 -80 90 -1 0 0 0 1 0 0 0 -1 3023.dat
1 7 50 -80 90 0 0 -1 0 1 0 1 0 0 3024.dat
1 7 80 -80 90 1 0 0 0 1 0 0 0 1 3023.dat
1 7 110 -80 80 0 0 -1 0 1 0 1 0 0 3023.dat
1 7 100 -72 70 -1 0 0 0 1 0 0 0 -1 3023.dat
1 7 90 -64 60 0 0 -1 0 1 0 1 0 0 3023.dat
1 7 110 -64 60 0 0 -1 0 1 0 1 0 0 3023.dat
1 7 100 -72 50 -1 0 0 0 1 0 0 0 -1 3023.dat
1 7 100 -80 50 1 0 0 0 1 0 0 0 1 3023.dat
1 7 80 -80 70 -1 0 0 0 1 0 0 0 -1 3023.dat
1 7 130 -80 80 0 0 -1 0 1 0 1 0 0 3023.dat
1 7 130 -72 60 0 0 -1 0 1 0 1 0 0 3023.dat
1 7 130 -80 40 0 0 -1 0 1 0 1 0 0 3023.dat
1 7 130 -72 30 0 0 -1 0 1 0 1 0 0 3024.dat
1 7 60 -88 30 -1 0 0 0 1 0 0 0 -1 3023.dat
1 7 100 -88 30 1 0 0 0 1 0 0 0 1 3023.dat
1 7 50 -88 60 0 0 1 0 1 0 -1 0 0 3023.dat
1 7 70 -88 60 0 0 1 0 1 0 -1 0 0 3023.dat
1 7 90 -88 60 0 0 1 0 1 0 -1 0 0 3023.dat
1 7 110 -88 60 0 0 1 0 1 0 -1 0 0 3023.dat
1 7 40 -88 90 -1 0 0 0 1 0 0 0 -1 3023.dat
1 7 80 -88 90 1 0 0 0 1 0 0 0 1 3023.dat
1 7 50 -88 30 0 0 1 0 1 0 -1 0 0 54200.dat
1 7 70 -88 30 0 0 1 0 1 0 -1 0 0 54200.dat
1 7 90 -88 30 0 0 -1 0 1 0 1 0 0 54200.dat
1 7 110 -88 30 0 0 -1 0 1 0 1 0 0 54200.dat
1 7 50 -88 50 0 0 1 0 1 0 -1 0 0 54200.dat
1 7 70 -88 50 0 0 1 0 1 0 -1 0 0 54200.dat
1 7 90 -88 50 0 0 -1 0 1 0 1 0 0 54200.dat
1 7 110 -88 50 0 0 -1 0 1 0 1 0 0 54200.dat
1 7 50 -88 70 0 0 1 0 1 0 -1 0 0 54200.dat
1 7 70 -88 70 0 0 1 0 1 0 -1 0 0 54200.dat
1 7 90 -88 70 0 0 -1 0 1 0 1 0 0 54200.dat
1 7 110 -88 70 0 0 -1 0 1 0 1 0 0 54200.dat
1 7 50 -88 90 0 0 1 0 1 0 -1 0 0 54200.dat
1 7 70 -88 90 0 0 1 0 1 0 -1 0 0 54200.dat
1 7 90 -88 90 0 0 -1 0 1 0 1 0 0 54200.dat
