0 
0 Name: main.ldr
0 Author: 
1 7 10 -24 20 0 0 1 0 1 0 -1 0 0 3004.dat
1 7 30 -24 20 0 0 1 0 1 0 -1 0 0 3004.dat
1 7 90 -24 20 0 0 1 0 1 0 -1 0 0 3004.dat
1 7 110 -24 20 0 0 1 0 1 0 -1 0 0 3004.dat
1 7 10 -48 0 0 0 -1 0 1 0 1 0 0 3004.dat
1 7 30 -48 0 0 0 -1 0 1 0 1 0 0 3004.dat
1 7 10 -48 30 0 0 -1 0 1 0 1 0 0 3005.dat
1 7 40 -48 30 1 0 0 0 1 0 0 0 1 3004.dat
1 7 80 -48 30 -1 0 0 0 1 0 0 0 -1 3004.dat
1 7 100 -32 10 1 0 0 0 1 0 0 0 1 3023.dat
1 7 110 -32 30 0 0 -1 0 1 0 1 0 0 3024.dat
1 7 100 -40 10 1 0 0 0 1 0 0 0 1 3023.dat
1 7 110 -40 30 0 0 -1 0 1 0 1 0 0 3024.dat
1 7 80 -48 10 -1 0 0 0 1 0 0 0 -1 3023.dat
1 7 110 -48 20 0 0 1 0 1 0 -1 0 0 3023.dat
1 7 80 -72 10 -1 0 0 0 1 0 0 0 -1 3004.dat
1 7 80 -72 30 -1 0 0 0 1 0 0 0 -1 3004.dat
1 7 20 -56 10 1 0 0 0 1 0 0 0 1 3023.dat
1 7 20 -56 30 1 0 0 0 1 0 0 0 1 3023.dat
1 7 50 -56 20 0 0 -1 0 1 0 1 0 0 3023.dat
1 7 10 -56 10 0 0 1 0 1 0 -1 0 0 54200.dat
1 7 30 -80 20 0 0 1 0 1 0 -1 0 0 3004.dat
1 7 50 -56 10 0 0 -1 0 1 0 1 0 0 54200.dat
1 7 10 -56 30 0 0 1 0 1 0 -1 0 0 54200.dat
1 7 50 -56 30 -1 0 0 0 1 0 0 0 -1 54200.dat
1 7 90 -96 20 0 0 1 0 1 0 -1 0 0 3004.dat
1 7 30 -104 20 0 0 1 0 1 0 -1 0 0 3004.dat
1 7 80 -104 10 -1 0 0 0 1 0 0 0 -1 3023.dat
1 7 80 -104 30 -1 0 0 0 1 0 0 0 -1 3023.dat
1 7 60 -128 10 -1 0 0 0 1 0 0 0 -1 3004.dat
1 7 50 -104 20 0 0 1 0 1 0 -1 0 0 3023.dat
1 7 60 -128 30 1 0 0 0 1 0 0 0 1 3004.dat
1 7 30 -112 20 0 0 1 0 1 0 -1 0 0 3023.dat
1 7 30 -112 10 0 0 1 0 1 0 -1 0 0 54200.dat
1 7 30 -112 30 0 0 1 0 1 0 -1 0 0 54200.dat
1 7 50 -136 20 0 0 1 0 1 0 -1 0 0 3023.dat
1 7 70 -136 20 0 0 1 0 1 0 -1 0 0 3023.dat
1 7 60 -144 10 1 0 0 0 1 0 0 0 1 3023.dat
1 7 60 -144 30 1 0 0 0 1 0 0 0 1 3023.dat
1 7 50 -144 10 0 0 1 0 1 0 -1 0 0 54200.dat
1 7 70 -144 10 0 0 -1 0 1 0 1 0 0 54200.dat
1 7 50 -144 30 0 0 1 0 1 0 -1 0 0 54200.dat
1 7 70 -144 30 0 0 -1 0 1 0 1 0 0 54200.dat
