0 
0 Name: main.ldr
0 Author: 
1 7 30 -24 30 0 0 -1 0 1 0 1 0 0 3005.dat
1 7 70 -24 30 0 0 -1 0 1 0 1 0 0 3005.dat
1 7 30 -24 70 0 0 -1 0 1 0 1 0 0 3005.dat
1 7 70 -24 70 0 0 -1 0 1 0 1 0 0 3005.dat
1 7 10 -8 20 0 0 1 0 1 0 -1 0 0 3023.dat
1 7 40 -8 10 1 0 0 0 1 0 0 0 1 3023.dat
1 7 80 -8 10 1 0 0 0 1 0 0 0 1 3023.dat
1 7 50 -8 30 0 0 -1 0 1 0 1 0 0 3024.dat
1 7 90 -8 40 0 0 1 0 1 0 -1 0 0 3023.dat
1 7 10 -8 60 0 0 1 0 1 0 -1 0 0 3023.dat
1 7 30 -8 50 0 0 -1 0 1 0 1 0 0 3024.dat
1 7 70 -8 50 0 0 -1 0 1 0 1 0 0 3024.dat
1 7 50 -8 70 0 0 -1 0 1 0 1 0 0 3024.dat
1 7 90 -8 80 0 0 1 0 1 0 -1 0 0 3023.dat
1 7 0 -8 90 -1 0 0 0 1 0 0 0 -1 3023.dat
1 7 40 -8 90 1 0 0 0 1 0 0 0 1 3023.dat
1 7 70 -8 90 0 0 -1 0 1 0 1 0 0 3024.dat
1 7 50 -16 30 0 0 -1 0 1 0 1 0 0 3024.dat
1 7 30 -16 50 0 0 -1 0 1 0 1 0 0 3024.dat
1 7 70 -16 50 0 0 -1 0 1 0 1 0 0 3024.dat
1 7 50 -16 70 0 0 -1 0 1 0 1 0 0 3024.dat
1 7 30 -48 30 0 0 -1 0 1 0 1 0 0 3005.dat
1 7 70 -48 30 0 0 -1 0 1 0 1 0 0 3005.dat
1 7 30 -48 70 0 0 -1 0 1 0 1 0 0 3005.dat
1 7 70 -48 70 0 0 -1 0 1 0 1 0 0 3005.dat
1 7 20 -56 30 -1 0 0 0 1 0 0 0 -1 3023.dat
1 7 60 -56 30 -1 0 0 0 1 0 0 0 -1 3023.dat
1 7 50 -48 30 0 0 -1 0 1 0 1 0 0 3024.dat
1 7 30 -56 60 0 0 -1 0 1 0 1 0 0 3023.dat
1 7 30 -48 50 0 0 -1 0 1 0 1 0 0 3024.dat
1 7 70 -56 60 0 0 -1 0 1 0 1 0 0 3023.dat
1 7 70 -48 50 0 0 -1 0 1 0 1 0 0 3024.dat
